<svg width="675" height="665" viewBox="0 0 675 665" fill="none" xmlns="http://www.w3.org/2000/svg">
<g filter="url(#filter0_d_236_51)">
<path d="M576.217 333.245C576.217 201.264 469.226 94.2726 337.245 94.2726C205.264 94.2726 98.2723 201.264 98.2723 333.245C98.2723 465.226 205.264 572.217 337.245 572.217V576.984C202.631 576.984 93.5059 467.858 93.5059 333.245C93.5059 198.632 202.631 89.5061 337.245 89.5061C471.858 89.5061 580.984 198.632 580.984 333.245C580.984 467.858 471.858 576.984 337.245 576.984V572.217C469.226 572.217 576.217 465.226 576.217 333.245Z" fill="url(#paint0_linear_236_51)"/>
<path d="M328.482 555.583C331.388 555.695 334.309 555.752 337.245 555.752V576.984C334.035 576.984 330.841 576.922 327.662 576.799L328.482 555.583ZM346.828 576.799C343.649 576.922 340.454 576.984 337.245 576.984V555.752C340.18 555.752 343.102 555.695 346.008 555.583L346.828 576.799ZM293.797 551.516C299.471 552.639 305.225 553.546 311.049 554.228L309.814 564.772L309.814 564.772L308.579 575.316C302.199 574.568 295.895 573.575 289.676 572.344L293.797 551.516ZM384.813 572.344C378.594 573.575 372.29 574.568 365.911 575.316L363.44 554.228C369.265 553.545 375.018 552.639 380.693 551.516L384.813 572.344ZM260.21 542.062C265.647 544.068 271.184 545.868 276.811 547.452L271.057 567.889C264.889 566.153 258.819 564.18 252.859 561.98L260.21 542.062ZM421.63 561.98C415.67 564.18 409.601 566.153 403.432 567.889L400.556 557.671L397.679 547.452C403.306 545.868 408.842 544.068 414.279 542.062L421.63 561.98ZM228.52 527.429C233.587 530.273 238.776 532.924 244.076 535.371L235.175 554.647C229.366 551.965 223.68 549.06 218.129 545.945L228.52 527.429ZM456.361 545.945C450.809 549.06 445.124 551.965 439.314 554.647L430.413 535.371C435.714 532.924 440.903 530.273 445.969 527.429L456.361 545.945ZM199.499 508.001C204.069 511.609 208.783 515.041 213.632 518.286L207.725 527.108L207.726 527.108L201.82 535.93C196.51 532.375 191.347 528.616 186.343 524.666L199.499 508.001ZM474.991 508.001L488.147 524.666C483.143 528.616 477.98 532.375 472.67 535.93L466.764 527.108L460.858 518.286C465.706 515.041 470.421 511.609 474.991 508.001ZM173.848 484.279C177.807 488.559 181.931 492.683 186.211 496.642L171.795 512.23C167.109 507.896 162.594 503.381 158.26 498.695L173.848 484.279ZM516.229 498.695C511.896 503.381 507.38 507.896 502.695 512.229L495.487 504.436L488.279 496.642C492.559 492.683 496.683 488.559 500.641 484.279L516.229 498.695ZM152.203 456.858C155.449 461.707 158.881 466.421 162.489 470.991L154.156 477.569L154.156 477.569L145.823 484.147C141.873 479.143 138.115 473.98 134.56 468.67L152.203 456.858ZM522.286 456.858L539.929 468.67C536.374 473.98 532.616 479.143 528.666 484.147L520.334 477.569L512.001 470.991C515.608 466.421 519.04 461.707 522.286 456.858ZM135.119 426.413C137.566 431.714 140.217 436.903 143.061 441.97L124.545 452.361C121.429 446.81 118.525 441.124 115.842 435.315L135.119 426.413ZM558.647 435.315C555.964 441.124 553.06 446.81 549.944 452.361L531.429 441.97C534.273 436.903 536.923 431.714 539.371 426.413L558.647 435.315ZM123.038 393.679C124.622 399.306 126.422 404.843 128.428 410.279L108.509 417.63C106.31 411.671 104.337 405.601 102.6 399.433L123.038 393.679ZM571.889 399.432C570.153 405.601 568.18 411.67 565.98 417.63L546.061 410.279C548.068 404.843 549.868 399.306 551.452 393.679L571.889 399.432ZM116.262 359.44C116.944 365.265 117.851 371.019 118.974 376.693L98.1452 380.813C96.9148 374.594 95.9211 368.29 95.1737 361.911L116.262 359.44ZM568.772 360.676L579.316 361.911C578.568 368.29 577.574 374.594 576.344 380.813L565.93 378.753L555.516 376.693C556.638 371.019 557.545 365.265 558.228 359.44L568.772 360.676ZM93.5059 333.245C93.5059 330.036 93.5681 326.841 93.691 323.662L114.907 324.482C114.795 327.388 114.738 330.309 114.738 333.245C114.738 336.181 114.795 339.102 114.907 342.008L93.691 342.828C93.5681 339.649 93.5059 336.454 93.5059 333.245ZM580.984 333.245C580.984 336.454 580.921 339.649 580.798 342.828L559.582 342.008C559.695 339.102 559.751 336.181 559.751 333.245C559.751 330.309 559.695 327.388 559.582 324.482L580.798 323.662C580.921 326.841 580.984 330.036 580.984 333.245ZM98.1452 285.677L108.559 287.737L118.974 289.797C117.851 295.471 116.944 301.225 116.262 307.05L105.718 305.814L95.1737 304.579C95.8938 298.433 96.8427 292.356 98.0114 286.358L98.1452 285.677ZM576.344 285.676C577.575 291.895 578.568 298.2 579.316 304.579L558.228 307.05C557.545 301.225 556.638 295.471 555.516 289.797L576.344 285.676ZM108.509 248.86L128.428 256.211C126.422 261.647 124.622 267.184 123.038 272.811L102.6 267.057C104.28 261.089 106.182 255.213 108.296 249.439L108.509 248.86ZM565.98 248.86C568.18 254.819 570.153 260.889 571.889 267.057L561.671 269.934L561.67 269.934L551.452 272.811C549.868 267.184 548.068 261.647 546.061 256.211L565.98 248.86ZM143.061 224.521C140.217 229.587 137.566 234.776 135.119 240.077L115.842 231.175C118.525 225.366 121.429 219.68 124.545 214.129L143.061 224.521ZM549.944 214.129C553.06 219.68 555.964 225.366 558.647 231.175L539.371 240.077C536.923 234.776 534.273 229.587 531.429 224.52L549.944 214.129ZM162.489 195.499C158.881 200.069 155.449 204.784 152.203 209.632L143.382 203.726L134.56 197.82C138.115 192.51 141.873 187.347 145.823 182.343L162.489 195.499ZM528.666 182.343C532.616 187.347 536.374 192.51 539.929 197.82L531.108 203.726L531.108 203.726L522.286 209.632C519.04 204.784 515.608 200.069 512.001 195.499L528.666 182.343ZM179.003 162.054L186.211 169.849C181.931 173.807 177.806 177.931 173.848 182.211L158.26 167.795L158.26 167.795C162.593 163.109 167.109 158.594 171.795 154.26L179.003 162.054ZM502.695 154.26C507.38 158.594 511.896 163.109 516.229 167.795L508.435 175.003L508.435 175.003L500.641 182.211C496.683 177.931 492.559 173.807 488.279 169.848L502.695 154.26ZM213.632 148.204C208.783 151.45 204.069 154.881 199.499 158.489L186.343 141.824C191.347 137.873 196.509 134.115 201.82 130.56L213.632 148.204ZM472.67 130.56C477.98 134.115 483.142 137.873 488.146 141.824L474.991 158.489C470.421 154.881 465.706 151.45 460.858 148.204L472.67 130.56ZM244.076 131.119C238.776 133.567 233.587 136.217 228.52 139.061L218.129 120.545C223.68 117.43 229.366 114.525 235.175 111.843L244.076 131.119ZM439.314 111.843C445.124 114.525 450.809 117.43 456.361 120.545L445.969 139.061C440.902 136.217 435.714 133.567 430.413 131.119L439.314 111.843ZM276.81 119.038C271.184 120.622 265.647 122.422 260.21 124.428L252.859 104.509C258.819 102.31 264.888 100.337 271.057 98.6004L276.81 119.038ZM403.432 98.6004C409.601 100.337 415.67 102.31 421.63 104.509L414.279 124.428C408.842 122.422 403.306 120.622 397.679 119.038L403.432 98.6004ZM311.049 112.262C305.225 112.945 299.471 113.852 293.797 114.974L289.676 94.1454C295.895 92.9151 302.199 91.9214 308.579 91.174L311.049 112.262ZM365.911 91.174C372.29 91.9214 378.594 92.9151 384.813 94.1454L380.693 114.974C375.018 113.852 369.265 112.944 363.44 112.262L365.911 91.174ZM337.245 89.5061C340.454 89.5061 343.649 89.5683 346.828 89.6912L346.008 110.908C343.102 110.795 340.18 110.738 337.245 110.738C334.309 110.738 331.388 110.795 328.482 110.908L327.662 89.6912C330.841 89.5683 334.035 89.5061 337.245 89.5061Z" fill="url(#paint1_linear_236_51)"/>
<path d="M373.433 607.899C377.883 607.319 381.96 610.455 382.541 614.905C383.121 619.354 379.985 623.431 375.535 624.012C363 625.647 350.219 626.49 337.245 626.49C324.271 626.49 311.49 625.647 298.955 624.012C294.505 623.431 291.369 619.354 291.949 614.905C292.53 610.455 296.607 607.319 301.057 607.899C312.897 609.443 324.976 610.241 337.245 610.241C349.514 610.241 361.593 609.443 373.433 607.899ZM157.226 554.509C159.917 551.006 164.902 550.305 168.451 552.891L168.619 553.017L169.514 553.702C188.04 567.82 208.396 579.654 230.162 588.786L231.216 589.225L231.409 589.308C235.422 591.093 237.301 595.762 235.609 599.842C233.917 603.923 229.285 605.892 225.187 604.313L224.992 604.235L223.876 603.769C200.825 594.098 179.273 581.569 159.665 566.626L158.718 565.901L158.553 565.772C155.14 563.008 154.535 558.011 157.226 554.509ZM506.039 552.891C509.588 550.305 514.573 551.006 517.264 554.509C519.998 558.067 519.33 563.168 515.772 565.902L514.825 566.627C494.9 581.81 472.97 594.502 449.498 604.235C445.353 605.954 440.6 603.987 438.881 599.842C437.162 595.698 439.129 590.944 443.273 589.225C465.788 579.889 486.808 567.666 505.871 553.017L506.039 552.891ZM593.308 439.081C595.093 435.068 599.762 433.189 603.842 434.881C607.987 436.6 609.954 441.353 608.235 445.498L607.769 446.614C597.942 470.037 585.164 491.911 569.901 511.772C567.167 515.33 562.067 515.998 558.509 513.264C554.951 510.53 554.283 505.429 557.017 501.871C571.666 482.808 583.889 461.788 593.225 439.274L593.308 439.081ZM81.2645 439.273C90.4551 461.436 102.442 482.151 116.788 500.976L117.473 501.871L117.599 502.039C120.185 505.588 119.484 510.573 115.981 513.264C112.479 515.955 107.482 515.35 104.718 511.937L104.588 511.772L103.864 510.825C88.6802 490.9 75.9881 468.97 66.2547 445.498L81.2645 439.273ZM70.6475 434.881C74.7923 433.162 79.5457 435.129 81.2645 439.273L66.2547 445.498C64.5359 441.353 66.5027 436.6 70.6475 434.881ZM44 333.245C44 320.271 44.8431 307.49 46.4782 294.955C47.0586 290.505 51.136 287.369 55.5854 287.949C60.0348 288.53 63.1714 292.607 62.591 297.057C61.0465 308.897 60.2493 320.976 60.2493 333.245C60.2493 345.514 61.0465 357.593 62.591 369.433L62.6153 369.642C63.0729 374.01 59.9653 377.969 55.5854 378.541C51.136 379.121 47.0586 375.985 46.4782 371.535L46.3272 370.359C44.7911 358.201 44 345.813 44 333.245ZM628.012 371.535C627.431 375.985 623.354 379.121 618.905 378.541C614.455 377.96 611.319 373.883 611.899 369.433L628.012 371.535ZM614.241 333.245C614.241 320.976 613.443 308.897 611.899 297.057C611.319 292.607 614.455 288.53 618.905 287.949C623.354 287.369 627.431 290.505 628.012 294.955C629.647 307.49 630.49 320.271 630.49 333.245C630.49 346.219 629.647 359 628.012 371.535L611.899 369.433C613.443 357.593 614.241 345.514 614.241 333.245ZM104.589 154.718C107.323 151.16 112.423 150.492 115.981 153.226C119.539 155.96 120.207 161.061 117.473 164.619C102.824 183.682 90.6012 204.702 81.2648 227.216L81.1818 227.409C79.3974 231.422 74.7276 233.301 70.6475 231.609C66.5027 229.89 64.536 225.137 66.2547 220.992L66.7206 219.876C76.5479 196.453 89.3263 174.579 104.589 154.718ZM558.509 153.226C562.011 150.535 567.008 151.14 569.772 154.553L569.902 154.718L570.627 155.665C585.81 175.59 598.502 197.52 608.235 220.992C609.954 225.137 607.987 229.89 603.842 231.609C599.698 233.328 594.944 231.361 593.225 227.217C584.035 205.054 572.048 184.339 557.702 165.514L557.017 164.619L556.891 164.451C554.305 160.902 555.006 155.917 558.509 153.226ZM224.992 62.2547C229.137 60.5359 233.89 62.5027 235.609 66.6475C237.328 70.7923 235.361 75.5457 231.217 77.2645C208.702 86.601 187.682 98.8237 168.619 113.473L168.451 113.599C164.902 116.185 159.917 115.484 157.226 111.981C154.492 108.423 155.16 103.322 158.718 100.588L159.665 99.8635C179.59 84.6802 201.52 71.9881 224.992 62.2547ZM438.881 66.6475C440.573 62.5675 445.205 60.5979 449.303 62.1769L449.498 62.2547L450.614 62.7206C473.665 72.3919 495.217 84.9214 514.825 99.8637L515.772 100.589L515.937 100.718C519.35 103.482 519.955 108.479 517.264 111.981C514.573 115.484 509.588 116.185 506.039 113.599L505.871 113.473L504.976 112.788C486.45 98.6701 466.094 86.8364 444.328 77.7044L443.274 77.2648L443.081 77.1818C439.068 75.3974 437.189 70.7276 438.881 66.6475ZM337.245 40C350.219 40 363 40.8431 375.535 42.4782C379.985 43.0586 383.121 47.136 382.541 51.5854C381.96 56.0348 377.883 59.1714 373.433 58.591C361.593 57.0465 349.514 56.2493 337.245 56.2493C324.976 56.2493 312.897 57.0465 301.057 58.591L300.848 58.6153C296.48 59.0729 292.521 55.9653 291.949 51.5854C291.369 47.136 294.505 43.0586 298.955 42.4782L300.131 42.3272C312.289 40.7911 324.677 40 337.245 40Z" fill="url(#paint2_linear_236_51)"/>
<path d="M430.19 333.245C430.19 281.912 388.577 240.299 337.245 240.299C285.912 240.299 244.299 281.912 244.299 333.245C244.299 384.578 285.912 426.191 337.245 426.191V430.091C283.758 430.091 240.399 386.731 240.399 333.245C240.399 279.759 283.758 236.399 337.245 236.399C390.731 236.399 434.09 279.759 434.09 333.245C434.09 386.731 390.731 430.091 337.245 430.091V426.191C388.577 426.191 430.19 384.578 430.19 333.245Z" fill="#7D7FFF"/>
<path d="M404.408 333.245C404.408 296.152 374.338 266.081 337.245 266.081C300.151 266.081 270.081 296.152 270.081 333.245C270.081 370.338 300.151 400.409 337.245 400.409V401.709C299.433 401.709 268.781 371.056 268.781 333.245C268.781 295.434 299.433 264.781 337.245 264.781C375.056 264.781 405.708 295.434 405.708 333.245C405.708 371.056 375.056 401.709 337.245 401.709V400.409C374.338 400.409 404.408 370.338 404.408 333.245Z" fill="#7D7FFF"/>
<path d="M367.038 404.883C368.118 404.498 369.321 405.024 369.765 406.095C370.224 407.2 369.699 408.468 368.594 408.926L368.14 409.112C358.604 413 348.171 415.141 337.244 415.141C326.317 415.141 315.885 413 306.348 409.112L305.895 408.926L305.793 408.881C304.758 408.389 304.279 407.165 304.723 406.095C305.168 405.024 306.371 404.498 307.451 404.883L307.555 404.923L307.984 405.1C317.01 408.779 326.888 410.808 337.244 410.808C347.765 410.808 357.792 408.715 366.934 404.923L367.038 404.883ZM255.348 333.245C255.348 322.144 257.558 311.555 261.563 301.895L261.609 301.793C262.101 300.758 263.324 300.28 264.395 300.724C265.5 301.182 266.024 302.45 265.566 303.555L265.389 303.984C261.71 313.011 259.681 322.888 259.681 333.245C259.681 343.601 261.71 353.479 265.389 362.505L265.566 362.935L265.606 363.039C265.991 364.118 265.465 365.322 264.395 365.766C263.324 366.21 262.101 365.732 261.609 364.696L261.563 364.594L261.377 364.141C257.489 354.604 255.348 344.172 255.348 333.245ZM414.808 333.245C414.808 322.888 412.779 313.011 409.099 303.984L408.923 303.555L408.883 303.451C408.498 302.372 409.023 301.168 410.094 300.724C411.165 300.28 412.388 300.758 412.88 301.793L412.926 301.895L413.112 302.349C417 311.886 419.141 322.318 419.141 333.245C419.141 344.345 416.931 354.935 412.926 364.594L412.88 364.696C412.388 365.732 411.165 366.21 410.094 365.766C408.989 365.308 408.465 364.04 408.923 362.935L409.099 362.505C412.779 353.479 414.808 343.601 414.808 333.245ZM337.244 251.349C348.171 251.349 358.604 253.49 368.14 257.377L368.594 257.564L368.696 257.609C369.731 258.101 370.209 259.324 369.765 260.395C369.321 261.466 368.118 261.992 367.038 261.607L366.934 261.566L366.505 261.39C357.478 257.71 347.601 255.682 337.244 255.682C326.724 255.682 316.697 257.775 307.555 261.566L307.451 261.607C306.371 261.992 305.168 261.466 304.723 260.395C304.265 259.29 304.79 258.022 305.895 257.564L306.348 257.377C315.885 253.49 326.317 251.349 337.244 251.349Z" fill="#7D7FFF"/>
<path d="M155.427 518.019L94.3837 578.737L91.3281 575.665L152.371 514.947L155.427 518.019ZM582.728 575.665L579.673 578.737L518.63 518.019L521.685 514.947L582.728 575.665ZM399.599 275.147L340.1 334.329L399.599 393.511L396.543 396.583L337.028 337.384L277.513 396.583L274.457 393.511L333.956 334.329L274.457 275.147L277.513 272.074L337.028 331.273L396.543 272.074L399.599 275.147ZM155.427 150.638L152.371 153.71L91.3281 92.9923L94.3837 89.9202L155.427 150.638ZM582.728 92.9923L521.685 153.71L518.63 150.638L579.673 89.9202L582.728 92.9923Z" fill="white"/>
</g>
<defs>
<filter id="filter0_d_236_51" x="-4" y="0" width="683" height="673" filterUnits="userSpaceOnUse" color-interpolation-filters="sRGB">
<feFlood flood-opacity="0" result="BackgroundImageFix"/>
<feColorMatrix in="SourceAlpha" type="matrix" values="0 0 0 0 0 0 0 0 0 0 0 0 0 0 0 0 0 0 127 0" result="hardAlpha"/>
<feOffset dy="4"/>
<feGaussianBlur stdDeviation="2"/>
<feComposite in2="hardAlpha" operator="out"/>
<feColorMatrix type="matrix" values="0 0 0 0 0 0 0 0 0 0 0 0 0 0 0 0 0 0 0.25 0"/>
<feBlend mode="normal" in2="BackgroundImageFix" result="effect1_dropShadow_236_51"/>
<feBlend mode="normal" in="SourceGraphic" in2="effect1_dropShadow_236_51" result="shape"/>
</filter>
<linearGradient id="paint0_linear_236_51" x1="337.245" y1="89.5061" x2="337.245" y2="576.984" gradientUnits="userSpaceOnUse">
<stop stop-color="#DA1FFF"/>
<stop offset="1" stop-color="#C70909"/>
</linearGradient>
<linearGradient id="paint1_linear_236_51" x1="337.245" y1="89.5061" x2="337.245" y2="576.984" gradientUnits="userSpaceOnUse">
<stop stop-color="#DA1FFF"/>
<stop offset="1" stop-color="#C70909"/>
</linearGradient>
<linearGradient id="paint2_linear_236_51" x1="337.245" y1="48.1246" x2="337.245" y2="618.365" gradientUnits="userSpaceOnUse">
<stop stop-color="#DA1FFF"/>
<stop offset="1" stop-color="#C70909"/>
</linearGradient>
</defs>
</svg>
